<mxfile host="app.diagrams.net" agent="Mozilla/5.0 (Windows NT 10.0; Win64; x64) AppleWebKit/537.36 (KHTML, like Gecko) Chrome/127.0.0.0 Safari/537.36 Edg/127.0.0.0" version="24.7.7">
  <diagram name="Seite-1" id="D6J3uwxsV9Y32xT-Rxug">
    <mxGraphModel dx="1188" dy="653" grid="1" gridSize="10" guides="1" tooltips="1" connect="1" arrows="1" fold="1" page="1" pageScale="1" pageWidth="827" pageHeight="1169" math="0" shadow="0">
      <root>
        <mxCell id="0" />
        <mxCell id="1" parent="0" />
        <mxCell id="cXB5TM7fzexhb9y3vVa8-2" value="" style="rounded=0;whiteSpace=wrap;html=1;fillColor=#999999;" vertex="1" parent="1">
          <mxGeometry y="120" width="800" height="120" as="geometry" />
        </mxCell>
        <mxCell id="cXB5TM7fzexhb9y3vVa8-3" value="" style="rounded=0;whiteSpace=wrap;html=1;fillColor=#999999;" vertex="1" parent="1">
          <mxGeometry y="300" width="800" height="120" as="geometry" />
        </mxCell>
        <mxCell id="cXB5TM7fzexhb9y3vVa8-4" value="" style="rounded=0;whiteSpace=wrap;html=1;fillColor=#999999;" vertex="1" parent="1">
          <mxGeometry y="480" width="800" height="120" as="geometry" />
        </mxCell>
        <mxCell id="cXB5TM7fzexhb9y3vVa8-9" value="" style="shape=flexArrow;endArrow=classic;html=5;rounded=0;entryX=0.074;entryY=0;entryDx=0;entryDy=0;entryPerimeter=0;endWidth=90.5952380952381;endSize=14.608333333333334;width=144.16666666666669;fillColor=#999999;" edge="1" parent="1">
          <mxGeometry width="50" height="50" relative="1" as="geometry">
            <mxPoint x="400" y="240" as="sourcePoint" />
            <mxPoint x="400" y="300" as="targetPoint" />
          </mxGeometry>
        </mxCell>
        <mxCell id="cXB5TM7fzexhb9y3vVa8-11" value="" style="shape=flexArrow;endArrow=classic;html=5;rounded=0;entryX=0.074;entryY=0;entryDx=0;entryDy=0;entryPerimeter=0;endWidth=90.5952380952381;endSize=14.608333333333334;width=144.16666666666669;fillColor=#999999;" edge="1" parent="1">
          <mxGeometry width="50" height="50" relative="1" as="geometry">
            <mxPoint x="400" y="480" as="sourcePoint" />
            <mxPoint x="400" y="420" as="targetPoint" />
          </mxGeometry>
        </mxCell>
        <mxCell id="cXB5TM7fzexhb9y3vVa8-12" value="&lt;p class=&quot;MsoNormal&quot;&gt;&lt;font color=&quot;#ffffff&quot; style=&quot;font-size: 16px;&quot;&gt;Management Prozesse&lt;/font&gt;&lt;/p&gt;" style="rounded=0;whiteSpace=wrap;html=1;fillColor=#666666;" vertex="1" parent="1">
          <mxGeometry y="120" width="800" height="20" as="geometry" />
        </mxCell>
        <mxCell id="cXB5TM7fzexhb9y3vVa8-13" value="&lt;p class=&quot;MsoNormal&quot;&gt;&lt;span style=&quot;font-size:12.0pt;line-height:115%;&lt;br/&gt;font-family:&amp;quot;Aptos&amp;quot;,sans-serif;mso-ascii-theme-font:minor-latin;mso-fareast-font-family:&lt;br/&gt;Aptos;mso-fareast-theme-font:minor-latin;mso-hansi-theme-font:minor-latin;&lt;br/&gt;mso-bidi-font-family:&amp;quot;Times New Roman&amp;quot;;mso-bidi-theme-font:minor-bidi;&lt;br/&gt;mso-ansi-language:DE;mso-fareast-language:EN-US;mso-bidi-language:AR-SA&quot;&gt;&lt;font color=&quot;#ffffff&quot;&gt;Wertschöpfungsprozesse&lt;/font&gt;&lt;/span&gt;&lt;br&gt;&lt;/p&gt;" style="rounded=0;whiteSpace=wrap;html=1;fillColor=#666666;" vertex="1" parent="1">
          <mxGeometry y="300" width="800" height="20" as="geometry" />
        </mxCell>
        <mxCell id="cXB5TM7fzexhb9y3vVa8-14" value="&lt;p class=&quot;MsoNormal&quot;&gt;&lt;font color=&quot;#ffffff&quot; style=&quot;font-size: 16px;&quot;&gt;Unterstützungsprozesse&lt;/font&gt;&lt;/p&gt;" style="rounded=0;whiteSpace=wrap;html=1;fillColor=#666666;" vertex="1" parent="1">
          <mxGeometry y="480" width="800" height="20" as="geometry" />
        </mxCell>
        <mxCell id="cXB5TM7fzexhb9y3vVa8-15" value="Projektziele definieren" style="shape=step;perimeter=stepPerimeter;whiteSpace=wrap;html=1;fixedSize=1;" vertex="1" parent="1">
          <mxGeometry x="10" y="150" width="120" height="80" as="geometry" />
        </mxCell>
        <mxCell id="cXB5TM7fzexhb9y3vVa8-16" value="Aufgaben identifizieren" style="shape=step;perimeter=stepPerimeter;whiteSpace=wrap;html=1;fixedSize=1;" vertex="1" parent="1">
          <mxGeometry x="230" y="150" width="120" height="80" as="geometry" />
        </mxCell>
        <mxCell id="cXB5TM7fzexhb9y3vVa8-17" value="Ressourcen&lt;br&gt;zuweisen" style="shape=step;perimeter=stepPerimeter;whiteSpace=wrap;html=1;fixedSize=1;" vertex="1" parent="1">
          <mxGeometry x="340" y="150" width="120" height="80" as="geometry" />
        </mxCell>
        <mxCell id="cXB5TM7fzexhb9y3vVa8-18" value="Meilensteine &lt;br&gt;planen" style="shape=step;perimeter=stepPerimeter;whiteSpace=wrap;html=1;fixedSize=1;" vertex="1" parent="1">
          <mxGeometry x="560" y="150" width="120" height="80" as="geometry" />
        </mxCell>
        <mxCell id="cXB5TM7fzexhb9y3vVa8-19" value="Strategie&lt;br&gt;entwickeln" style="shape=step;perimeter=stepPerimeter;whiteSpace=wrap;html=1;fixedSize=1;" vertex="1" parent="1">
          <mxGeometry x="120" y="150" width="120" height="80" as="geometry" />
        </mxCell>
        <mxCell id="cXB5TM7fzexhb9y3vVa8-20" value="Qualität&lt;br&gt;überwachen" style="shape=step;perimeter=stepPerimeter;whiteSpace=wrap;html=1;fixedSize=1;" vertex="1" parent="1">
          <mxGeometry x="670" y="150" width="120" height="80" as="geometry" />
        </mxCell>
        <mxCell id="cXB5TM7fzexhb9y3vVa8-21" value="Kollaboration&lt;br&gt;koordinieren" style="shape=step;perimeter=stepPerimeter;whiteSpace=wrap;html=1;fixedSize=1;" vertex="1" parent="1">
          <mxGeometry x="450" y="150" width="120" height="80" as="geometry" />
        </mxCell>
        <mxCell id="cXB5TM7fzexhb9y3vVa8-22" value="Datenbank&lt;br&gt;erstellen" style="shape=step;perimeter=stepPerimeter;whiteSpace=wrap;html=1;fixedSize=1;" vertex="1" parent="1">
          <mxGeometry x="340" y="330" width="120" height="80" as="geometry" />
        </mxCell>
        <mxCell id="cXB5TM7fzexhb9y3vVa8-23" value="Funktionen&lt;br&gt;integrieren" style="shape=step;perimeter=stepPerimeter;whiteSpace=wrap;html=1;fixedSize=1;" vertex="1" parent="1">
          <mxGeometry x="230" y="330" width="120" height="80" as="geometry" />
        </mxCell>
        <mxCell id="cXB5TM7fzexhb9y3vVa8-24" value="Datenimport &amp;amp;&lt;br&gt;Konsolidierung" style="shape=step;perimeter=stepPerimeter;whiteSpace=wrap;html=1;fixedSize=1;" vertex="1" parent="1">
          <mxGeometry x="450" y="330" width="120" height="80" as="geometry" />
        </mxCell>
        <mxCell id="cXB5TM7fzexhb9y3vVa8-25" value="Mediendaten&lt;br&gt;indizieren" style="shape=step;perimeter=stepPerimeter;whiteSpace=wrap;html=1;fixedSize=1;" vertex="1" parent="1">
          <mxGeometry x="560" y="330" width="120" height="80" as="geometry" />
        </mxCell>
        <mxCell id="cXB5TM7fzexhb9y3vVa8-26" value="Oberfläche&lt;br&gt;design" style="shape=step;perimeter=stepPerimeter;whiteSpace=wrap;html=1;fixedSize=1;" vertex="1" parent="1">
          <mxGeometry x="120" y="330" width="120" height="80" as="geometry" />
        </mxCell>
        <mxCell id="cXB5TM7fzexhb9y3vVa8-27" value="Anforderungen&lt;br&gt;umsetzen" style="shape=step;perimeter=stepPerimeter;whiteSpace=wrap;html=1;fixedSize=1;" vertex="1" parent="1">
          <mxGeometry x="10" y="330" width="120" height="80" as="geometry" />
        </mxCell>
        <mxCell id="cXB5TM7fzexhb9y3vVa8-28" value="Gesamtsystem&lt;br&gt;optimieren" style="shape=step;perimeter=stepPerimeter;whiteSpace=wrap;html=1;fixedSize=1;" vertex="1" parent="1">
          <mxGeometry x="670" y="330" width="120" height="80" as="geometry" />
        </mxCell>
        <mxCell id="cXB5TM7fzexhb9y3vVa8-29" value="Systemtests&lt;br&gt;durchführen" style="shape=step;perimeter=stepPerimeter;whiteSpace=wrap;html=1;fixedSize=1;" vertex="1" parent="1">
          <mxGeometry x="120" y="510" width="120" height="80" as="geometry" />
        </mxCell>
        <mxCell id="cXB5TM7fzexhb9y3vVa8-30" value="Qualität&lt;br&gt;verbessern" style="shape=step;perimeter=stepPerimeter;whiteSpace=wrap;html=1;fixedSize=1;" vertex="1" parent="1">
          <mxGeometry x="230" y="510" width="120" height="80" as="geometry" />
        </mxCell>
        <mxCell id="cXB5TM7fzexhb9y3vVa8-31" value="Ergebnisse&lt;br&gt;sichern" style="shape=step;perimeter=stepPerimeter;whiteSpace=wrap;html=1;fixedSize=1;" vertex="1" parent="1">
          <mxGeometry x="340" y="510" width="120" height="80" as="geometry" />
        </mxCell>
        <mxCell id="cXB5TM7fzexhb9y3vVa8-32" value="Dokumentation&lt;br&gt;erstellen" style="shape=step;perimeter=stepPerimeter;whiteSpace=wrap;html=1;fixedSize=1;" vertex="1" parent="1">
          <mxGeometry x="450" y="510" width="120" height="80" as="geometry" />
        </mxCell>
        <mxCell id="cXB5TM7fzexhb9y3vVa8-33" value="Anwender&lt;br&gt;schulen" style="shape=step;perimeter=stepPerimeter;whiteSpace=wrap;html=1;fixedSize=1;" vertex="1" parent="1">
          <mxGeometry x="560" y="510" width="120" height="80" as="geometry" />
        </mxCell>
        <mxCell id="cXB5TM7fzexhb9y3vVa8-36" value="&lt;font style=&quot;font-size: 20px;&quot;&gt;Prozesslandkarte zum&lt;br&gt;Softwareprojekt: Mediendatenbank&lt;/font&gt;" style="text;html=1;align=center;verticalAlign=middle;whiteSpace=wrap;rounded=0;fillColor=#FFFFFF;" vertex="1" parent="1">
          <mxGeometry x="180" y="40" width="440" height="40" as="geometry" />
        </mxCell>
      </root>
    </mxGraphModel>
  </diagram>
</mxfile>
